<svg width="1253" height="1259" viewBox="0 0 1253 1259" fill="none" xmlns="http://www.w3.org/2000/svg">
<rect x="7.5" y="7.5" width="1238" height="1244" rx="392.5" fill="url(#paint0_linear_3_43)"/>
<rect x="7.5" y="7.5" width="1238" height="1244" rx="392.5" stroke="#FFA507" stroke-width="15"/>
<g clip-path="url(#clip0_3_43)">
<path d="M974.061 555.862C974.061 539.81 975.344 538.525 975.344 538.525L924.676 506.42C920.186 501.283 911.848 504.494 911.848 504.494H871.442L890.042 533.389V659.884H573.845H342.31V534.031L380.151 505.136H342.31C342.31 505.136 332.048 505.778 327.558 510.915L268.552 539.168C268.552 539.168 259.573 540.452 259.573 555.862V747.211C259.573 747.211 270.476 755.559 286.511 755.559H294.207V815.275H317.938V755.559H584.107H589.238H926.6V815.275H950.331V755.559H967.648C983.682 755.559 974.061 747.211 974.061 747.211V555.862Z" fill="url(#paint1_linear_3_43)"/>
<path d="M377.585 612.368H854.125V492.294V442.851C854.125 408.819 838.732 409.461 838.732 409.461H589.238H584.749H413.502C413.502 409.461 377.585 408.819 377.585 442.851V505.136V612.368Z" fill="url(#paint2_linear_3_43)"/>
</g>
<defs>
<linearGradient id="paint0_linear_3_43" x1="102" y1="40" x2="1283.5" y2="1363.5" gradientUnits="userSpaceOnUse">
<stop stop-color="#0F0F0F"/>
<stop offset="1" stop-color="#161616"/>
</linearGradient>
<linearGradient id="paint1_linear_3_43" x1="618.248" y1="503.503" x2="618.248" y2="815.275" gradientUnits="userSpaceOnUse">
<stop stop-color="#FEB83B"/>
<stop offset="1" stop-color="#B67D19"/>
</linearGradient>
<linearGradient id="paint2_linear_3_43" x1="615.855" y1="409.461" x2="615.855" y2="612.368" gradientUnits="userSpaceOnUse">
<stop stop-color="#FEB83B"/>
<stop offset="1" stop-color="#B67D19"/>
</linearGradient>
<clipPath id="clip0_3_43">
<rect width="779" height="547" fill="white" transform="translate(237 356)"/>
</clipPath>
</defs>
</svg>
