<svg width="1024" height="1024" viewBox="0 0 1024 1024" fill="none" xmlns="http://www.w3.org/2000/svg">
<rect x="0.500305" y="0.500244" width="1023" height="1023" stroke="black"/>
<mask id="path-2-inside-1_7_496" fill="white">
<path d="M656.341 0.000244141C668.801 0.00135301 681.262 0.00934963 693.731 0.0793457C705.73 0.149345 717.721 0.289635 729.71 0.609619C755.84 1.31961 782.2 2.85939 808.05 7.49927C834.27 12.2092 858.671 19.8997 882.491 32.0295C905.9 43.9494 927.331 59.5201 945.901 78.0999C964.47 96.6796 980.05 118.1 991.97 141.51C1004.09 165.33 1011.79 189.73 1016.5 215.949C1021.15 241.789 1022.68 268.15 1023.39 294.289C1023.72 306.279 1023.85 318.28 1023.92 330.27C1024.01 344.509 1024 358.75 1024 372.999V650.999C1024 665.239 1024 679.48 1023.92 693.73C1023.85 705.729 1023.71 717.719 1023.39 729.709C1022.68 755.839 1021.14 782.2 1016.5 808.05C1011.79 834.27 1004.1 858.67 991.97 882.49C980.05 905.899 964.481 927.33 945.901 945.9C927.321 964.47 905.9 980.05 882.491 991.97C858.671 1004.09 834.27 1011.79 808.05 1016.5C782.21 1021.15 755.85 1022.68 729.71 1023.39C717.721 1023.72 705.72 1023.85 693.731 1023.92C679.491 1024.01 665.25 1024 651 1024H373C358.761 1024 344.52 1024 330.27 1023.92C318.27 1023.85 306.28 1023.71 294.29 1023.39C268.161 1022.68 241.8 1021.14 215.951 1016.5C189.731 1011.79 165.33 1004.1 141.51 991.97C118.1 980.05 96.6697 964.479 78.0999 945.9C59.5302 927.32 43.9504 905.899 32.0306 882.49C19.9108 858.67 12.2103 834.27 7.50031 808.05C2.85037 782.21 1.32065 755.849 0.610657 729.709C0.280672 717.72 0.150382 705.719 0.0803833 693.73C-0.00961441 679.49 0.000305176 665.249 0.000305176 650.999V372.999C0.000305177 358.76 0.000385598 344.519 0.0803833 330.27C0.150384 318.27 0.29066 306.279 0.610657 294.289C1.32066 268.16 2.86034 241.799 7.50031 215.949C12.2103 189.73 19.9007 165.33 32.0306 141.51C43.9505 118.1 59.5201 96.6697 78.0999 78.0999C96.6798 59.53 118.1 43.9495 141.51 32.0295C165.33 19.9096 189.731 12.2093 215.951 7.49927C241.79 2.84934 268.151 1.31962 294.29 0.609619C306.28 0.27963 318.28 0.149347 330.27 0.0793457C343.493 -0.00422589 356.717 -0.000551642 369.948 0.000244141H656.341Z"/>
</mask>
<path d="M656.341 0.000244141C668.801 0.00135301 681.262 0.00934963 693.731 0.0793457C705.73 0.149345 717.721 0.289635 729.71 0.609619C755.84 1.31961 782.2 2.85939 808.05 7.49927C834.27 12.2092 858.671 19.8997 882.491 32.0295C905.9 43.9494 927.331 59.5201 945.901 78.0999C964.47 96.6796 980.05 118.1 991.97 141.51C1004.09 165.33 1011.79 189.73 1016.5 215.949C1021.15 241.789 1022.68 268.15 1023.39 294.289C1023.72 306.279 1023.85 318.28 1023.92 330.27C1024.01 344.509 1024 358.75 1024 372.999V650.999C1024 665.239 1024 679.48 1023.92 693.73C1023.85 705.729 1023.71 717.719 1023.39 729.709C1022.68 755.839 1021.14 782.2 1016.5 808.05C1011.79 834.27 1004.1 858.67 991.97 882.49C980.05 905.899 964.481 927.33 945.901 945.9C927.321 964.47 905.9 980.05 882.491 991.97C858.671 1004.09 834.27 1011.79 808.05 1016.5C782.21 1021.15 755.85 1022.68 729.71 1023.39C717.721 1023.72 705.72 1023.85 693.731 1023.92C679.491 1024.01 665.25 1024 651 1024H373C358.761 1024 344.52 1024 330.27 1023.92C318.27 1023.85 306.28 1023.71 294.29 1023.39C268.161 1022.68 241.8 1021.14 215.951 1016.5C189.731 1011.79 165.33 1004.1 141.51 991.97C118.1 980.05 96.6697 964.479 78.0999 945.9C59.5302 927.32 43.9504 905.899 32.0306 882.49C19.9108 858.67 12.2103 834.27 7.50031 808.05C2.85037 782.21 1.32065 755.849 0.610657 729.709C0.280672 717.72 0.150382 705.719 0.0803833 693.73C-0.00961441 679.49 0.000305176 665.249 0.000305176 650.999V372.999C0.000305177 358.76 0.000385598 344.519 0.0803833 330.27C0.150384 318.27 0.29066 306.279 0.610657 294.289C1.32066 268.16 2.86034 241.799 7.50031 215.949C12.2103 189.73 19.9007 165.33 32.0306 141.51C43.9505 118.1 59.5201 96.6697 78.0999 78.0999C96.6798 59.53 118.1 43.9495 141.51 32.0295C165.33 19.9096 189.731 12.2093 215.951 7.49927C241.79 2.84934 268.151 1.31962 294.29 0.609619C306.28 0.27963 318.28 0.149347 330.27 0.0793457C343.493 -0.00422589 356.717 -0.000551642 369.948 0.000244141H656.341Z" fill="#0F0F0F"/>
<path d="M656.341 0.000244141L656.343 -19.9998H656.341V0.000244141ZM693.731 0.0793457L693.847 -19.9203L693.843 -19.9203L693.731 0.0793457ZM729.71 0.609619L730.253 -19.383L730.244 -19.3833L729.71 0.609619ZM808.05 7.49927L811.586 -12.1857L811.583 -12.1861L808.05 7.49927ZM882.491 32.0295L873.415 49.8518L873.416 49.8521L882.491 32.0295ZM945.901 78.0999L960.047 63.9616L960.047 63.9615L945.901 78.0999ZM991.97 141.51L1009.8 132.44L1009.79 132.435L991.97 141.51ZM1016.5 215.949L996.815 219.486L996.816 219.492L1016.5 215.949ZM1023.39 294.289L1003.4 294.832L1003.4 294.84L1023.39 294.289ZM1023.92 330.27L1003.92 330.387L1003.92 330.396L1023.92 330.27ZM1024 372.999H1004V372.999H1024ZM1023.92 693.73L1043.92 693.846V693.842L1023.92 693.73ZM1023.39 729.709L1043.38 730.252L1043.38 730.243L1023.39 729.709ZM1016.5 808.05L1036.19 811.586L1036.19 811.583L1016.5 808.05ZM991.97 882.49L974.148 873.414L974.147 873.414L991.97 882.49ZM945.901 945.9L960.039 960.046H960.039L945.901 945.9ZM882.491 991.97L891.56 1009.8L891.566 1009.79L882.491 991.97ZM808.05 1016.5L804.514 996.814L804.508 996.815L808.05 1016.5ZM729.71 1023.39L729.167 1003.4L729.16 1003.4L729.71 1023.39ZM693.731 1023.92L693.614 1003.92L693.604 1003.92L693.731 1023.92ZM373 1024V1044V1024ZM330.27 1023.92L330.153 1043.92H330.158L330.27 1023.92ZM294.29 1023.39L293.747 1043.38L293.757 1043.38L294.29 1023.39ZM215.951 1016.5L212.414 1036.18L212.417 1036.18L215.951 1016.5ZM141.51 991.97L150.586 974.148L150.585 974.147L141.51 991.97ZM78.0999 945.9L63.9539 960.038H63.954L78.0999 945.9ZM32.0306 882.49L14.2053 891.559L14.208 891.565L32.0306 882.49ZM7.50031 808.05L27.1852 804.514L27.1841 804.508L7.50031 808.05ZM0.610657 729.709L20.6033 729.166L20.6031 729.159L0.610657 729.709ZM0.0803833 693.73L20.08 693.613L20.08 693.603L0.0803833 693.73ZM0.000305176 372.999H-19.9997H0.000305176ZM0.0803833 330.27L-19.9193 330.153L-19.9193 330.158L0.0803833 330.27ZM0.610657 294.289L-19.382 293.746L-19.3822 293.756L0.610657 294.289ZM7.50031 215.949L-12.1846 212.413L-12.1851 212.416L7.50031 215.949ZM32.0306 141.51L49.8528 150.586L49.8532 150.585L32.0306 141.51ZM78.0999 78.0999L63.9616 63.9539L63.9616 63.9539L78.0999 78.0999ZM141.51 32.0295L132.44 14.2043L132.435 14.207L141.51 32.0295ZM215.951 7.49927L219.487 27.1842L219.493 27.1831L215.951 7.49927ZM294.29 0.609619L294.833 20.6022L294.841 20.602L294.29 0.609619ZM330.27 0.0793457L330.387 20.079L330.396 20.0789L330.27 0.0793457ZM369.948 0.000244141L369.946 20.0002H369.948V0.000244141ZM656.341 0.000244141L656.339 20.0002C668.798 20.0014 681.211 20.0094 693.618 20.079L693.731 0.0793457L693.843 -19.9203C681.314 -19.9907 668.804 -19.9986 656.343 -19.9998L656.341 0.000244141ZM693.731 0.0793457L693.614 20.079C705.542 20.1486 717.38 20.2877 729.177 20.6025L729.71 0.609619L730.244 -19.3833C718.061 -19.7084 705.919 -19.8499 693.847 -19.9203L693.731 0.0793457ZM729.71 0.609619L729.167 20.6022C754.969 21.3033 780.15 22.811 804.517 27.1847L808.05 7.49927L811.583 -12.1861C784.251 -17.0922 756.711 -18.6641 730.253 -19.383L729.71 0.609619ZM808.05 7.49927L804.514 27.1842C829.059 31.5933 851.556 38.7204 873.415 49.8518L882.491 32.0295L891.566 14.2073C865.786 1.07908 839.481 -7.17486 811.586 -12.1857L808.05 7.49927ZM882.491 32.0295L873.416 49.8521C894.952 60.818 914.671 75.1453 931.755 92.2382L945.901 78.0999L960.047 63.9615C939.991 43.8949 916.849 27.0809 891.566 14.207L882.491 32.0295ZM945.901 78.0999L931.755 92.2382C948.848 109.341 963.185 129.055 974.147 150.585L991.97 141.51L1009.79 132.435C996.916 107.146 980.092 84.0182 960.047 63.9616L945.901 78.0999ZM991.97 141.51L974.145 150.58C985.271 172.447 992.407 194.946 996.815 219.486L1016.5 215.949L1036.19 212.413C1031.17 184.514 1022.91 158.213 1009.8 132.44L991.97 141.51ZM1016.5 215.949L996.816 219.492C1001.2 243.839 1002.7 269.013 1003.4 294.832L1023.39 294.289L1043.38 293.746C1042.66 267.287 1041.1 239.739 1036.18 212.407L1016.5 215.949ZM1023.39 294.289L1003.4 294.84C1003.72 306.618 1003.85 318.453 1003.92 330.387L1023.92 330.27L1043.92 330.153C1043.85 318.107 1043.72 305.941 1043.38 293.739L1023.39 294.289ZM1023.92 330.27L1003.92 330.396C1004.01 344.558 1004 358.725 1004 372.999H1024H1044C1044 358.775 1044.01 344.461 1043.92 330.143L1023.92 330.27ZM1024 372.999H1004V650.999H1024H1044V372.999H1024ZM1024 650.999H1004C1004 665.248 1004 679.433 1003.92 693.617L1023.92 693.73L1043.92 693.842C1044 679.527 1044 665.23 1044 650.999H1024ZM1023.92 693.73L1003.92 693.613C1003.85 705.541 1003.71 717.379 1003.4 729.176L1023.39 729.709L1043.38 730.243C1043.71 718.06 1043.85 705.918 1043.92 693.846L1023.92 693.73ZM1023.39 729.709L1003.4 729.166C1002.7 754.969 1001.19 780.15 996.815 804.517L1016.5 808.05L1036.19 811.583C1041.09 784.25 1042.66 756.71 1043.38 730.252L1023.39 729.709ZM1016.5 808.05L996.815 804.514C992.406 829.059 985.279 851.555 974.148 873.414L991.97 882.49L1009.79 891.565C1022.92 865.785 1031.17 839.481 1036.19 811.586L1016.5 808.05ZM991.97 882.49L974.147 873.414C963.181 894.951 948.855 914.67 931.762 931.754L945.901 945.9L960.039 960.046C980.106 939.989 996.919 916.848 1009.79 891.565L991.97 882.49ZM945.901 945.9L931.762 931.754C914.659 948.848 894.945 963.185 873.416 974.147L882.491 991.97L891.566 1009.79C916.855 996.915 939.982 980.091 960.039 960.046L945.901 945.9ZM882.491 991.97L873.421 974.145C851.554 985.271 829.055 992.406 804.514 996.814L808.05 1016.5L811.586 1036.18C839.485 1031.17 865.787 1022.91 891.56 1009.8L882.491 991.97ZM808.05 1016.5L804.508 996.815C780.16 1001.2 754.986 1002.7 729.167 1003.4L729.71 1023.39L730.253 1043.38C756.714 1042.66 784.261 1041.1 811.592 1036.18L808.05 1016.5ZM729.71 1023.39L729.16 1003.4C717.383 1003.72 705.549 1003.85 693.614 1003.92L693.731 1023.92L693.848 1043.92C705.892 1043.85 718.058 1043.72 730.26 1043.38L729.71 1023.39ZM693.731 1023.92L693.604 1003.92C679.442 1004.01 665.275 1004 651 1004V1024V1044C665.225 1044 679.539 1044.01 693.857 1043.92L693.731 1023.92ZM651 1024V1004H373V1024V1044H651V1024ZM373 1024V1004C358.751 1004 344.566 1004 330.382 1003.92L330.27 1023.92L330.158 1043.92C344.473 1044 358.77 1044 373 1044V1024ZM330.27 1023.92L330.387 1003.92C318.457 1003.85 306.62 1003.71 294.824 1003.4L294.29 1023.39L293.757 1043.38C305.94 1043.71 318.083 1043.85 330.153 1043.92L330.27 1023.92ZM294.29 1023.39L294.834 1003.4C269.032 1002.7 243.851 1001.19 219.484 996.814L215.951 1016.5L212.417 1036.18C239.749 1041.09 267.289 1042.66 293.747 1043.38L294.29 1023.39ZM215.951 1016.5L219.487 996.814C194.941 992.405 172.445 985.279 150.586 974.148L141.51 991.97L132.434 1009.79C158.215 1022.92 184.521 1031.17 212.414 1036.18L215.951 1016.5ZM141.51 991.97L150.585 974.147C129.049 963.181 109.33 948.854 92.2459 931.761L78.0999 945.9L63.954 960.038C84.0099 980.105 107.152 996.919 132.435 1009.79L141.51 991.97ZM78.0999 945.9L92.2459 931.761C75.1522 914.658 60.8159 894.945 49.8532 873.414L32.0306 882.49L14.208 891.565C27.085 916.854 43.9081 939.981 63.9539 960.038L78.0999 945.9ZM32.0306 882.49L49.8558 873.42C38.7298 851.553 31.5934 829.054 27.1852 804.514L7.50031 808.05L-12.1846 811.586C-7.17287 839.486 1.09182 865.787 14.2053 891.559L32.0306 882.49ZM7.50031 808.05L27.1841 804.508C22.8027 780.16 21.3046 754.986 20.6033 729.166L0.610657 729.709L-19.382 730.252C-18.6633 756.712 -17.1019 784.26 -12.1835 811.592L7.50031 808.05ZM0.610657 729.709L20.6031 729.159C20.2789 717.381 20.1497 705.546 20.08 693.613L0.0803833 693.73L-19.9193 693.846C-19.8489 705.893 -19.7176 718.058 -19.3818 730.259L0.610657 729.709ZM0.0803833 693.73L20.08 693.603C19.9905 679.441 20.0003 665.274 20.0003 650.999H0.000305176H-19.9997C-19.9997 665.224 -20.0097 679.538 -19.9192 693.856L0.0803833 693.73ZM0.000305176 650.999H20.0003V372.999H0.000305176H-19.9997V650.999H0.000305176ZM0.000305176 372.999H20.0003C20.0003 358.75 20.0004 344.566 20.0801 330.382L0.0803833 330.27L-19.9193 330.158C-19.9997 344.473 -19.9997 358.769 -19.9997 372.999H0.000305176ZM0.0803833 330.27L20.08 330.386C20.1496 318.458 20.2887 306.62 20.6035 294.823L0.610657 294.289L-19.3822 293.756C-19.7074 305.939 -19.8489 318.082 -19.9193 330.153L0.0803833 330.27ZM0.610657 294.289L20.6033 294.833C21.3044 269.03 22.8119 243.85 27.1857 219.483L7.50031 215.949L-12.1851 212.416C-17.0913 239.749 -18.6631 267.289 -19.382 293.746L0.610657 294.289ZM7.50031 215.949L27.1852 219.486C31.5944 194.941 38.7213 172.445 49.8528 150.586L32.0306 141.51L14.2083 132.434C1.08014 158.215 -7.17377 184.519 -12.1846 212.413L7.50031 215.949ZM32.0306 141.51L49.8532 150.585C60.8192 129.048 75.1456 109.329 92.2383 92.2458L78.0999 78.0999L63.9616 63.9539C43.8947 84.0101 27.0817 107.152 14.208 132.435L32.0306 141.51ZM78.0999 78.0999L92.2382 92.2458C109.341 75.1518 129.055 60.8148 150.585 49.8521L141.51 32.0295L132.435 14.207C107.145 27.0842 84.0181 43.9082 63.9616 63.9539L78.0999 78.0999ZM141.51 32.0295L150.58 49.8548C172.447 38.7287 194.946 31.5925 219.487 27.1842L215.951 7.49927L212.414 -12.1856C184.515 -7.17391 158.213 1.09057 132.44 14.2043L141.51 32.0295ZM215.951 7.49927L219.493 27.1831C243.84 22.8016 269.014 21.3036 294.833 20.6022L294.29 0.609619L293.747 -19.383C267.288 -18.6643 239.74 -17.103 212.408 -12.1846L215.951 7.49927ZM294.29 0.609619L294.841 20.602C306.619 20.2779 318.453 20.1487 330.387 20.079L330.27 0.0793457L330.153 -19.9203C318.107 -19.85 305.941 -19.7186 293.74 -19.3828L294.29 0.609619ZM330.27 0.0793457L330.396 20.0789C343.543 19.9959 356.7 19.9994 369.946 20.0002L369.948 0.000244141L369.949 -19.9998C356.733 -20.0006 343.442 -20.0043 330.143 -19.9203L330.27 0.0793457ZM369.948 0.000244141V20.0002H656.341V0.000244141V-19.9998H369.948V0.000244141Z" fill="#FEB83B" mask="url(#path-2-inside-1_7_496)"/>
<mask id="path-4-inside-2_7_496" fill="white">
<path d="M681.823 355.001C681.903 354.998 693.698 354.595 693.698 380.76V511.539H326.047V430.321L298.832 451.104V548.197H721.408V450.609L707.058 428.317H738.232C738.251 428.309 744.67 425.846 748.129 429.803L787.219 454.571C787.207 454.585 786.229 455.643 786.229 467.946V615.569C786.264 615.599 793.622 622.008 781.281 622.008H767.922V668.078H749.613V622.008H280.029V668.078H261.72V622.008H255.783C243.467 622.008 235.074 615.625 235.001 615.569V467.946C235.001 456.107 241.871 455.075 241.927 455.067L287.451 433.27C290.902 429.321 298.774 428.815 298.832 428.812H326.047V380.76C326.048 354.567 353.628 354.999 353.756 355.001H681.823Z"/>
</mask>
<path d="M681.823 355.001C681.903 354.998 693.698 354.595 693.698 380.76V511.539H326.047V430.321L298.832 451.104V548.197H721.408V450.609L707.058 428.317H738.232C738.251 428.309 744.67 425.846 748.129 429.803L787.219 454.571C787.207 454.585 786.229 455.643 786.229 467.946V615.569C786.264 615.599 793.622 622.008 781.281 622.008H767.922V668.078H749.613V622.008H280.029V668.078H261.72V622.008H255.783C243.467 622.008 235.074 615.625 235.001 615.569V467.946C235.001 456.107 241.871 455.075 241.927 455.067L287.451 433.27C290.902 429.321 298.774 428.815 298.832 428.812H326.047V380.76C326.048 354.567 353.628 354.999 353.756 355.001H681.823Z" fill="url(#paint0_linear_7_496)"/>
<path d="M681.823 355.001V356.001H681.842L681.861 356L681.823 355.001ZM693.698 380.76H694.698V380.76L693.698 380.76ZM693.698 511.539V512.539H694.698V511.539H693.698ZM326.047 511.539H325.047V512.539H326.047V511.539ZM326.047 430.321H327.047V428.3L325.441 429.527L326.047 430.321ZM298.832 451.104L298.225 450.309L297.832 450.609V451.104H298.832ZM298.832 548.197H297.832V549.197H298.832V548.197ZM721.408 548.197V549.197H722.408V548.197H721.408ZM721.408 450.609H722.408V450.315L722.249 450.067L721.408 450.609ZM707.058 428.317V427.317H705.225L706.217 428.858L707.058 428.317ZM738.232 428.317V429.317H738.418L738.591 429.25L738.232 428.317ZM748.129 429.803L747.376 430.461L747.471 430.57L747.593 430.648L748.129 429.803ZM787.219 454.571L787.941 455.264L788.788 454.382L787.755 453.727L787.219 454.571ZM786.229 615.569H785.229V616.024L785.573 616.323L786.229 615.569ZM767.922 622.008V621.008H766.922V622.008H767.922ZM767.922 668.078V669.078H768.922V668.078H767.922ZM749.613 668.078H748.613V669.078H749.613V668.078ZM749.613 622.008H750.613V621.008H749.613V622.008ZM280.029 622.008V621.008H279.029V622.008H280.029ZM280.029 668.078V669.078H281.029V668.078H280.029ZM261.72 668.078H260.72V669.078H261.72V668.078ZM261.72 622.008H262.72V621.008H261.72V622.008ZM235.001 615.569H234.001V616.063L234.394 616.363L235.001 615.569ZM241.927 455.067L242.072 456.056L242.222 456.034L242.359 455.969L241.927 455.067ZM287.451 433.27L287.883 434.172L288.068 434.083L288.204 433.928L287.451 433.27ZM298.832 428.812V427.812H298.8L298.768 427.814L298.832 428.812ZM326.047 428.812V429.812H327.047V428.812H326.047ZM326.047 380.76L325.047 380.76V380.76H326.047ZM353.756 355.001L353.74 356.001L353.748 356.001H353.756V355.001ZM681.823 355.001L681.861 356C681.722 356.006 684.364 355.862 687.06 358.75C689.775 361.659 692.698 367.804 692.698 380.76L693.698 380.76L694.698 380.76C694.698 367.551 691.724 360.815 688.522 357.385C685.3 353.934 682.004 353.994 681.785 354.002L681.823 355.001ZM693.698 380.76H692.698V511.539H693.698H694.698V380.76H693.698ZM693.698 511.539V510.539H326.047V511.539V512.539H693.698V511.539ZM326.047 511.539H327.047V430.321H326.047H325.047V511.539H326.047ZM326.047 430.321L325.441 429.527L298.225 450.309L298.832 451.104L299.439 451.898L326.654 431.116L326.047 430.321ZM298.832 451.104H297.832V548.197H298.832H299.832V451.104H298.832ZM298.832 548.197V549.197H721.408V548.197V547.197H298.832V548.197ZM721.408 548.197H722.408V450.609H721.408H720.408V548.197H721.408ZM721.408 450.609L722.249 450.067L707.899 427.775L707.058 428.317L706.217 428.858L720.567 451.15L721.408 450.609ZM707.058 428.317V429.317H738.232V428.317V427.317H707.058V428.317ZM738.232 428.317L738.591 429.25C738.56 429.262 740.059 428.685 741.95 428.571C743.854 428.457 745.942 428.821 747.376 430.461L748.129 429.803L748.881 429.145C746.856 426.828 744.005 426.445 741.83 426.575C739.642 426.706 737.922 427.364 737.873 427.383L738.232 428.317ZM748.129 429.803L747.593 430.648L786.684 455.416L787.219 454.571L787.755 453.727L748.664 428.958L748.129 429.803ZM787.219 454.571L786.498 453.879C786.339 454.045 786.218 454.284 786.106 454.633C785.989 455.001 785.856 455.581 785.729 456.515C785.474 458.384 785.229 461.776 785.229 467.946H786.229H787.229C787.229 461.813 787.473 458.524 787.71 456.785C787.829 455.915 787.942 455.459 788.012 455.24C788.088 455.003 788.094 455.105 787.941 455.264L787.219 454.571ZM786.229 467.946H785.229V615.569H786.229H787.229V467.946H786.229ZM786.229 615.569L785.573 616.323C785.561 616.313 785.983 616.679 786.436 617.226C786.912 617.8 787.311 618.441 787.413 618.984C787.46 619.232 787.436 619.416 787.369 619.565C787.302 619.712 787.148 619.92 786.767 620.139C785.958 620.605 784.325 621.008 781.281 621.008V622.008V623.008C784.407 623.008 786.483 622.61 787.764 621.873C788.428 621.491 788.915 620.997 789.19 620.392C789.464 619.789 789.483 619.171 789.379 618.615C789.18 617.553 788.504 616.586 787.976 615.949C787.426 615.286 786.915 614.84 786.885 614.814L786.229 615.569ZM781.281 622.008V621.008H767.922V622.008V623.008H781.281V622.008ZM767.922 622.008H766.922V668.078H767.922H768.922V622.008H767.922ZM767.922 668.078V667.078H749.613V668.078V669.078H767.922V668.078ZM749.613 668.078H750.613V622.008H749.613H748.613V668.078H749.613ZM749.613 622.008V621.008H280.029V622.008V623.008H749.613V622.008ZM280.029 622.008H279.029V668.078H280.029H281.029V622.008H280.029ZM280.029 668.078V667.078H261.72V668.078V669.078H280.029V668.078ZM261.72 668.078H262.72V622.008H261.72H260.72V668.078H261.72ZM261.72 622.008V621.008H255.783V622.008V623.008H261.72V622.008ZM255.783 622.008V621.008C249.797 621.008 244.758 619.456 241.203 617.894C237.648 616.331 235.6 614.768 235.607 614.774L235.001 615.569L234.394 616.363C234.531 616.468 243.14 623.008 255.783 623.008V622.008ZM235.001 615.569H236.001V467.946H235.001H234.001V615.569H235.001ZM235.001 467.946H236.001C236.001 462.23 237.652 459.287 239.153 457.774C240.672 456.242 242.17 456.042 242.072 456.056L241.927 455.067L241.782 454.077C241.628 454.1 239.662 454.42 237.733 456.366C235.784 458.33 234.001 461.823 234.001 467.946H235.001ZM241.927 455.067L242.359 455.969L287.883 434.172L287.451 433.27L287.019 432.368L241.496 454.165L241.927 455.067ZM287.451 433.27L288.204 433.928C289.723 432.19 292.304 431.138 294.664 430.53C296.984 429.931 298.897 429.81 298.895 429.81L298.832 428.812L298.768 427.814C298.709 427.817 296.657 427.95 294.164 428.593C291.71 429.226 288.63 430.401 286.698 432.612L287.451 433.27ZM298.832 428.812V429.812H326.047V428.812V427.812H298.832V428.812ZM326.047 428.812H327.047V380.76H326.047H325.047V428.812H326.047ZM326.047 380.76L327.047 380.76C327.048 374.397 328.719 369.72 331.174 366.264C333.636 362.798 336.931 360.496 340.27 358.966C343.612 357.436 346.971 356.691 349.513 356.332C352.051 355.973 353.744 356.001 353.74 356.001L353.756 355.001L353.773 354.001C353.662 353.999 346.554 353.888 339.437 357.148C335.865 358.784 332.257 361.285 329.544 365.105C326.824 368.934 325.048 374.026 325.047 380.76L326.047 380.76ZM353.756 355.001V356.001H681.823V355.001V354.001H353.756V355.001Z" fill="black" mask="url(#path-4-inside-2_7_496)"/>
<defs>
<linearGradient id="paint0_linear_7_496" x1="509.873" y1="355" x2="509.873" y2="511.54" gradientUnits="userSpaceOnUse">
<stop stop-color="#FEB83B"/>
<stop offset="1" stop-color="#B67D19"/>
</linearGradient>
</defs>
</svg>
